<svg width="99" height="99" viewBox="0 0 99 99" fill="none" xmlns="http://www.w3.org/2000/svg">
<g filter="url(#filter0_f_101_571)">
<ellipse cx="49.5" cy="49.5323" rx="39.5" ry="39" fill="#E4FF7A" fill-opacity="0.5"/>
</g>
<ellipse cx="49.5" cy="44.5" rx="39.5" ry="39" fill="white"/>
<path d="M65.3909 69.6994C64.9275 69.7013 64.4704 69.5924 64.0579 69.3819L49.2787 61.673L34.4995 69.3819C34.0196 69.6333 33.4785 69.7455 32.9378 69.7058C32.397 69.6661 31.8783 69.476 31.4406 69.1572C31.0029 68.8384 30.6637 68.4036 30.4616 67.9023C30.2596 67.401 30.2027 66.8533 30.2976 66.3214L33.1955 50.0664L21.2562 38.5176C20.8837 38.1472 20.6194 37.6828 20.4918 37.1741C20.3642 36.6655 20.378 36.1318 20.5317 35.6304C20.6997 35.1172 21.0086 34.6613 21.4235 34.3142C21.8384 33.9672 22.3427 33.743 22.879 33.6671L39.3969 31.2707L46.6706 16.4593C46.9079 15.9711 47.2784 15.5594 47.7397 15.2714C48.2009 14.9833 48.7343 14.8306 49.2787 14.8306C49.8231 14.8306 50.3565 14.9833 50.8177 15.2714C51.279 15.5594 51.6495 15.9711 51.8868 16.4593L59.2474 31.2418L75.7653 33.6382C76.3017 33.7141 76.8059 33.9383 77.2208 34.2854C77.6357 34.6324 77.9447 35.0884 78.1126 35.6015C78.2664 36.1029 78.2802 36.6366 78.1525 37.1453C78.0249 37.6539 77.7607 38.1183 77.3882 38.4887L65.4489 50.0375L68.3468 66.2925C68.4502 66.8338 68.396 67.3933 68.1907 67.9049C67.9853 68.4165 67.6372 68.8589 67.1876 69.1797C66.6629 69.5461 66.031 69.7289 65.3909 69.6994Z" fill="#FFD873"/>
<defs>
<filter id="filter0_f_101_571" x="0" y="0.532288" width="99" height="98" filterUnits="userSpaceOnUse" color-interpolation-filters="sRGB">
<feFlood flood-opacity="0" result="BackgroundImageFix"/>
<feBlend mode="normal" in="SourceGraphic" in2="BackgroundImageFix" result="shape"/>
<feGaussianBlur stdDeviation="5" result="effect1_foregroundBlur_101_571"/>
</filter>
</defs>
</svg>
