<svg width="146" height="146" viewBox="0 0 146 146" fill="none" xmlns="http://www.w3.org/2000/svg">
<g filter="url(#filter0_f_101_570)">
<ellipse cx="73" cy="73.0824" rx="53" ry="52.5" fill="#FF00E5" fill-opacity="0.3"/>
</g>
<ellipse cx="73" cy="67.5" rx="53" ry="52.5" fill="white"/>
<path d="M80.5366 68.0797L96.6454 52.0153L96.6464 52.0143C97.6363 51.0248 98.1925 49.6827 98.1925 48.2831C98.1925 46.8836 97.6363 45.5415 96.6464 44.552C95.6566 43.5626 94.3141 43.0068 92.9145 43.0068C91.5148 43.0068 90.1724 43.5626 89.1825 44.552L89.1815 44.5531L73.1094 60.6557L57.0373 44.5531L57.0363 44.552C56.0464 43.5626 54.7039 43.0068 53.3043 43.0068C51.9047 43.0068 50.5622 43.5626 49.5723 44.552C48.5825 45.5415 48.0262 46.8836 48.0262 48.2831C48.0262 49.6827 48.5825 51.0248 49.5723 52.0143L49.5734 52.0153L65.6822 68.0797L49.5761 84.1414C49.5756 84.142 49.5751 84.1425 49.5746 84.143C49.0821 84.6316 48.6911 85.2129 48.4242 85.8532C48.1571 86.4943 48.0195 87.1819 48.0195 87.8763C48.0195 88.5708 48.1571 89.2584 48.4242 89.8994L49.6216 89.4004L48.4242 89.8995C48.6907 90.5388 49.0808 91.1192 49.5722 91.6073C50.0606 92.0986 50.6413 92.4886 51.2809 92.755C51.9221 93.022 52.6098 93.1594 53.3043 93.1594C53.9988 93.1594 54.6865 93.022 55.3277 92.755C55.9682 92.4882 56.5497 92.0975 57.0385 91.6052C57.039 91.6047 57.0395 91.6042 57.04 91.6037L73.1094 75.5038L89.1788 91.6037C89.1794 91.6043 89.18 91.605 89.1807 91.6056C89.6694 92.0977 90.2507 92.4883 90.8911 92.755C91.5323 93.022 92.2199 93.1594 92.9145 93.1594C93.609 93.1594 94.2967 93.022 94.9379 92.755C95.5774 92.4886 96.1581 92.0987 96.6465 91.6074C97.1379 91.1193 97.5281 90.5388 97.7946 89.8994C98.0617 89.2584 98.1993 88.5708 98.1993 87.8763C98.1993 87.1819 98.0617 86.4943 97.7946 85.8532C97.5276 85.2128 97.1366 84.6315 96.6441 84.1428C96.6436 84.1424 96.6431 84.1419 96.6427 84.1414L80.5366 68.0797Z" fill="#D61948" stroke="#D61948" stroke-width="2.60166"/>
<defs>
<filter id="filter0_f_101_570" x="0" y="0.582397" width="146" height="145" filterUnits="userSpaceOnUse" color-interpolation-filters="sRGB">
<feFlood flood-opacity="0" result="BackgroundImageFix"/>
<feBlend mode="normal" in="SourceGraphic" in2="BackgroundImageFix" result="shape"/>
<feGaussianBlur stdDeviation="10" result="effect1_foregroundBlur_101_570"/>
</filter>
</defs>
</svg>
